<svg width="96" height="95" viewBox="0 0 96 95" fill="none" xmlns="http://www.w3.org/2000/svg">
<rect x="26.4532" y="25.9075" width="42.2705" height="42.2705" fill="#2D5CE7"/>
<path d="M95.1766 16.3628C95.1766 25.3997 87.8508 32.7255 78.8139 32.7255C69.777 32.7255 62.4511 25.3997 62.4511 16.3628C62.4511 7.32586 69.777 0 78.8139 0C87.8508 0 95.1766 7.32586 95.1766 16.3628ZM67.9318 16.3628C67.9318 22.3728 72.8039 27.2449 78.8139 27.2449C84.8239 27.2449 89.696 22.3728 89.696 16.3628C89.696 10.3527 84.8239 5.48067 78.8139 5.48067C72.8039 5.48067 67.9318 10.3527 67.9318 16.3628Z" fill="#BCDE4F"/>
<path d="M95.1766 78.5415C95.1766 87.5784 87.8508 94.9042 78.8139 94.9042C69.777 94.9042 62.4511 87.5784 62.4511 78.5415C62.4511 69.5046 69.777 62.1787 78.8139 62.1787C87.8508 62.1787 95.1766 69.5046 95.1766 78.5415ZM67.9318 78.5415C67.9318 84.5515 72.8039 89.4236 78.8139 89.4236C84.8239 89.4236 89.696 84.5515 89.696 78.5415C89.696 72.5315 84.8239 67.6594 78.8139 67.6594C72.8039 67.6594 67.9318 72.5315 67.9318 78.5415Z" fill="#BCDE4F"/>
<path d="M32.7255 78.5415C32.7255 87.5784 25.3997 94.9042 16.3628 94.9042C7.32586 94.9042 0 87.5784 0 78.5415C0 69.5046 7.32586 62.1787 16.3628 62.1787C25.3997 62.1787 32.7255 69.5046 32.7255 78.5415ZM5.48067 78.5415C5.48067 84.5515 10.3527 89.4236 16.3628 89.4236C22.3728 89.4236 27.2449 84.5515 27.2449 78.5415C27.2449 72.5315 22.3728 67.6594 16.3628 67.6594C10.3527 67.6594 5.48067 72.5315 5.48067 78.5415Z" fill="#BCDE4F"/>
<path d="M32.7255 16.3628C32.7255 25.3997 25.3997 32.7255 16.3628 32.7255C7.32586 32.7255 0 25.3997 0 16.3628C0 7.32586 7.32586 0 16.3628 0C25.3997 0 32.7255 7.32586 32.7255 16.3628ZM5.48067 16.3628C5.48067 22.3728 10.3527 27.2449 16.3628 27.2449C22.3728 27.2449 27.2449 22.3728 27.2449 16.3628C27.2449 10.3527 22.3728 5.48067 16.3628 5.48067C10.3527 5.48067 5.48067 10.3527 5.48067 16.3628Z" fill="#BCDE4F"/>
<rect width="93.638" height="7.86905" rx="3.93452" transform="matrix(0.706941 -0.707272 0.663714 0.747987 11.8304 77.3469)" fill="#2D5CE7"/>
<rect width="93.638" height="7.86905" rx="3.93452" transform="matrix(0.706042 0.708169 -0.749139 0.662413 17.4316 11.4141)" fill="#2D5CE7"/>
<ellipse cx="47.5883" cy="46.4977" rx="8.31774" ry="7.77231" fill="#BCDE4F"/>
<circle cx="47.4521" cy="46.6339" r="4.3634" fill="#2D5CE7"/>
<rect x="31.0893" y="39.5432" width="3.27255" height="13.9083" fill="#BCDE4F"/>
<rect x="60.815" y="39.5432" width="3.27255" height="13.9083" fill="#BCDE4F"/>
<rect x="54.5426" y="48.2695" width="3.27255" height="6.38401" transform="rotate(-88.697 54.5426 48.2695)" fill="#BCDE4F"/>
<rect x="33.8163" y="47.9966" width="3.27255" height="6.38401" transform="rotate(-88.697 33.8163 47.9966)" fill="#BCDE4F"/>
</svg>
